<svg width="275" height="82" viewBox="0 0 275 82" fill="none" xmlns="http://www.w3.org/2000/svg">
<g clip-path="url(#clip0_2_460)">
<path d="M47.3454 13.9514H34.375V24.4861H47.3454V13.9514Z" fill="#144991"/>
<path d="M60.741 2.98959H47.7706V13.5243H60.741V2.98959Z" fill="#144991"/>
<path d="M26.3667 17.311L17.1953 26.5217L24.6126 33.9708L33.7839 24.7601L26.3667 17.311Z" fill="#007ABD"/>
<path d="M28.1263 -0.00400726L18.9549 9.20671L26.3722 16.6558L35.5435 7.44509L28.1263 -0.00400726Z" fill="#007ABD"/>
<path d="M24.3814 34.5226H13.8918V47.5486H24.3814V34.5226Z" fill="#00B7E3"/>
<path d="M13.4665 21.0694H2.97681V34.0955H13.4665V21.0694Z" fill="#00B7E3"/>
<path d="M33.808 57.2292L24.665 48.0469L17.2229 55.5208L26.366 64.7031L33.808 57.2292Z" fill="#252F6B"/>
<path d="M7.41265 46.3022L-0.00460815 53.7513L9.16674 62.962L16.584 55.5129L7.41265 46.3022Z" fill="#252F6B"/>
<path d="M47.2745 57.5139H34.375V68.0486H47.2745V57.5139Z" fill="#144991"/>
<path d="M33.8789 68.4757H20.9085V79.0104H33.8789V68.4757Z" fill="#144991"/>
<path d="M55.2725 65.3337L46.1012 74.5444L53.5184 81.9936L62.6898 72.7828L55.2725 65.3337Z" fill="#007ABD"/>
<path d="M57.0271 48.0209L47.8557 57.2316L55.273 64.6807L64.4443 55.47L57.0271 48.0209Z" fill="#007ABD"/>
<path d="M78.6727 47.9757H68.183V61.0017H78.6727V47.9757Z" fill="#00B7E3"/>
<path d="M67.6869 34.5226H57.1972V47.5486H67.6869V34.5226Z" fill="#00B7E3"/>
<path d="M81.6495 28.2587L72.5064 19.0764L65.0644 26.4792L74.2075 35.7326L81.6495 28.2587Z" fill="#252F6B"/>
<path d="M55.2764 17.3193L47.8592 24.7684L57.0305 33.9791L64.4478 26.53L55.2764 17.3193Z" fill="#252F6B"/>
<path d="M98.9433 33.1701H99.9356C100.999 33.1701 101.424 32.9566 101.424 31.8889V19.717C101.424 18.6493 100.999 18.4358 99.9356 18.4358H98.9433V17.2969H106.314V18.5069H105.393C104.33 18.5069 103.905 18.7205 103.905 19.7882V25.0556H111.063V19.7882C111.063 18.7205 110.638 18.5069 109.646 18.5069H108.653V17.3681H116.024V18.5069H115.032C113.969 18.5069 113.544 18.7205 113.544 19.7882V31.9601C113.544 33.0278 113.969 33.2413 115.032 33.2413H116.024V34.3802H108.653V33.2413H109.646C110.709 33.2413 111.063 33.0278 111.063 31.9601V26.4792H103.905V31.9601C103.905 33.0278 104.33 33.2413 105.393 33.2413H106.385V34.3802H99.0142V33.1701H98.9433Z" fill="#4E4F53"/>
<path d="M117.584 31.8177C117.584 29.6111 119.71 28.2587 124.53 27.2622V26.9063C124.53 24.5573 123.821 23.6319 122.12 23.6319C121.482 23.6319 120.773 23.7743 120.277 24.1302C120.206 24.2726 120.135 24.4149 120.348 24.4861C121.057 24.842 121.34 25.6962 120.986 26.3368C120.702 26.8351 120.206 27.1198 119.639 27.1198C118.86 27.1198 118.151 26.4792 118.151 25.6962C118.151 25.625 118.151 25.5538 118.151 25.5538C118.151 23.8455 119.994 22.5642 122.545 22.5642C125.097 22.5642 126.798 23.9167 126.798 26.7639V32.316C126.798 32.9566 127.01 33.1701 127.365 33.1701C127.719 33.099 128.003 32.9566 128.144 32.6719L128.64 33.2413C128.215 33.9531 127.436 34.3802 126.585 34.3802C125.522 34.3802 124.742 33.526 124.742 32.0313H124.601C123.821 33.526 122.332 34.4514 120.702 34.4514C118.93 34.5938 117.584 33.5972 117.584 31.8177ZM124.53 29.5399V28.1875C120.844 28.8993 119.994 30.0382 119.994 31.3906C119.923 32.1736 120.49 32.9566 121.269 33.0278C121.34 33.0278 121.411 33.0278 121.482 33.0278C122.97 33.099 124.53 31.8177 124.53 29.5399Z" fill="#4E4F53"/>
<path d="M129.349 28.6146C129.207 25.3403 131.759 22.5642 135.019 22.4219H135.09C137.287 22.4219 139.059 23.7743 139.059 25.6962C139.201 26.6215 138.492 27.4045 137.642 27.5469C137.571 27.5469 137.5 27.5469 137.429 27.5469C136.649 27.5469 135.941 26.9063 135.941 26.1233C135.941 26.0521 135.941 26.0521 135.941 25.9809C135.941 25.3403 136.295 24.7708 136.862 24.5573C137.146 24.4861 137.146 24.2726 137.004 24.1302C136.508 23.7031 135.799 23.4896 135.09 23.5608C133.106 23.5608 131.83 25.3403 131.83 28.5434C131.83 31.533 133.247 33.3125 135.09 33.3125C136.295 33.3125 137.358 32.6007 138.421 31.4618L139.13 32.0312C138.138 33.6684 136.366 34.6649 134.452 34.7361C131.688 34.6649 129.349 32.3872 129.349 28.6146Z" fill="#4E4F53"/>
<path d="M140.406 33.1701H140.76C141.753 33.1701 141.965 32.9566 141.965 31.8889V19.717C141.965 18.7205 141.753 18.4358 140.76 18.4358H140.264V17.3681L144.162 16.941V28.8281L147.21 25.3403C147.635 24.9132 147.706 24.6285 147.706 24.4149C147.706 24.2014 147.494 23.9167 146.572 23.9167V22.849H151.888V23.9167C150.187 24.059 149.691 24.2726 148.769 25.3403L147.068 27.191L150.187 32.1024C150.754 32.8854 151.179 33.1701 152.384 33.2413V34.3802H147.068V33.2413C147.777 33.2413 147.99 33.099 147.99 32.8142C147.99 32.5295 147.919 32.4583 147.706 32.1024L145.651 28.6858L144.162 30.3229V31.9601C144.162 32.9566 144.375 33.2413 145.367 33.2413H145.722V34.3802H140.406V33.1701Z" fill="#4E4F53"/>
<path d="M153.164 28.6146C153.164 24.9132 155.786 22.4219 158.409 22.4219C160.889 22.4219 163.086 24.4861 163.086 27.9028C163.086 28.2587 163.086 28.6146 163.015 28.8993H155.503C155.644 31.6042 156.778 33.3125 158.763 33.3125C160.11 33.3125 161.244 32.6719 162.307 31.2483L163.086 31.7465C161.881 33.5972 160.393 34.6649 158.267 34.6649C155.29 34.6649 153.164 32.316 153.164 28.6146ZM159.543 27.7604C160.393 27.7604 160.677 27.6181 160.677 26.9062C160.677 24.7708 159.826 23.4896 158.338 23.4896C156.849 23.4896 155.715 24.9132 155.573 27.7604H159.543Z" fill="#4E4F53"/>
<path d="M164.716 33.1701H165.142C166.134 33.1701 166.347 32.9566 166.347 31.8889V25.1979C166.347 24.2014 166.134 23.9167 165.142 23.9167H164.716V22.849L168.544 22.5642L168.26 25.7674H168.402C169.182 23.9879 170.528 22.6354 172.3 22.6354C174.356 22.6354 175.561 23.8455 175.561 26.4792V31.9601C175.561 32.9566 175.773 33.2413 176.765 33.2413H176.978V34.3802H171.592V33.2413H172.088C173.151 33.2413 173.293 33.0278 173.293 31.9601V26.5503C173.293 24.9844 172.796 24.2014 171.592 24.2014C169.89 24.2014 168.544 26.6927 168.544 28.9705V31.9601C168.544 32.9566 168.756 33.2413 169.749 33.2413H170.245V34.3802H164.716V33.1701Z" fill="#4E4F53"/>
<path d="M178.608 29.7535H179.317C179.884 31.7465 181.443 33.4549 183.64 33.4549C185.058 33.4549 185.909 32.8142 185.909 31.6753C185.909 30.5365 185.2 30.1094 182.719 29.4688C180.238 28.8281 178.75 28.0451 178.75 25.6962C178.75 23.7031 180.168 22.4219 182.294 22.4219C183.853 22.4219 184.562 23.1337 185.129 23.1337C185.483 23.1337 185.696 22.9201 185.979 22.4219H186.688V26.6215H185.979C185.554 25.1979 184.208 23.4896 182.152 23.4896C181.018 23.4896 180.309 24.059 180.309 25.0556C180.309 26.0521 181.16 26.4792 183.286 27.0486C186.263 27.8316 187.539 28.7569 187.539 30.8924C187.539 33.0278 185.909 34.3802 183.57 34.3802C181.869 34.3802 180.664 33.4549 180.168 33.4549C179.671 33.4549 179.601 33.7396 179.317 34.3802H178.608V29.7535Z" fill="#4E4F53"/>
<path d="M189.381 31.8177C189.381 29.6111 191.508 28.2587 196.327 27.2622V26.9063C196.327 24.5573 195.619 23.6319 193.918 23.6319C193.28 23.6319 192.571 23.7743 192.075 24.1302C192.004 24.2726 191.933 24.4149 192.146 24.4861C192.854 24.842 193.138 25.6962 192.784 26.3368C192.5 26.8351 192.004 27.1198 191.437 27.1198C190.657 27.1198 189.948 26.4792 189.948 25.6962C189.948 25.625 189.948 25.5538 189.948 25.4826C189.948 23.7743 191.791 22.4931 194.343 22.4931C196.894 22.4931 198.595 23.8455 198.595 26.6927V32.2448C198.595 32.8854 198.808 33.099 199.162 33.099C199.517 33.0278 199.8 32.8854 199.942 32.6007L200.438 33.1701C200.013 33.8819 199.233 34.309 198.383 34.309C197.32 34.309 196.54 33.4549 196.54 31.9601H196.327C195.548 33.4549 194.059 34.3802 192.429 34.3802C190.657 34.5938 189.311 33.5972 189.381 31.8177ZM196.256 29.5399V28.1875C192.571 28.8993 191.72 30.0382 191.72 31.3906C191.649 32.1736 192.146 32.9566 192.996 33.0278C193.067 33.0278 193.138 33.0278 193.209 33.0278C194.697 33.099 196.256 31.8177 196.256 29.5399Z" fill="#4E4F53"/>
<path d="M201.076 28.6146C200.934 25.3403 203.486 22.5642 206.817 22.4219H206.888C209.085 22.4219 210.857 23.7743 210.857 25.6962C210.999 26.6215 210.29 27.4045 209.439 27.5469C209.369 27.5469 209.298 27.5469 209.227 27.5469C208.447 27.5469 207.738 26.9063 207.738 26.1233C207.738 26.0521 207.738 26.0521 207.738 25.9809C207.738 25.3403 208.093 24.7708 208.66 24.5573C208.943 24.4861 208.943 24.2726 208.802 24.1302C208.305 23.7031 207.597 23.4896 206.888 23.5608C204.903 23.5608 203.628 25.3403 203.628 28.5434C203.628 31.533 205.045 33.3125 206.888 33.3125C208.093 33.3125 209.156 32.6007 210.148 31.4618L210.857 32.0312C209.865 33.6684 208.093 34.6649 206.179 34.7361C203.486 34.6649 201.147 32.3872 201.076 28.6146Z" fill="#4E4F53"/>
<path d="M211.991 33.1701H212.345C213.338 33.1701 213.55 32.9566 213.55 31.8889V19.717C213.55 18.7205 213.338 18.4358 212.345 18.4358H211.849V17.3681L215.747 16.941V28.8281L218.795 25.3403C219.22 24.9132 219.291 24.6285 219.291 24.4149C219.291 24.2014 219.079 23.9167 218.157 23.9167V22.849H223.473V23.9167C221.772 24.059 221.276 24.2726 220.354 25.3403L218.653 27.191L221.843 32.1024C222.41 32.8854 222.835 33.1701 224.04 33.2413V34.3802H218.724V33.2413C219.433 33.2413 219.646 33.099 219.646 32.8142C219.646 32.5295 219.575 32.4583 219.291 32.1024L217.165 28.6858L215.677 30.3229V31.9601C215.677 32.9566 215.889 33.2413 216.881 33.2413H217.236V34.3802H211.92L211.991 33.1701Z" fill="#4E4F53"/>
<path d="M102.912 46.8368H102.771V56.8021C102.771 59.0799 103.267 59.5781 105.11 59.5781H105.393V60.717H98.7307V59.6493H99.2268C100.857 59.6493 101.353 59.0799 101.353 56.8733V46.2674C101.353 45.1997 100.928 44.9861 99.8647 44.9861H98.8724V43.8472H104.543L109.291 57.0868L113.969 43.8472H119.497V44.9861H118.505C117.442 44.9861 117.017 45.1997 117.017 46.2674V58.4392C117.017 59.5069 117.442 59.7205 118.505 59.7205H119.497V60.8594H112.055V59.7205H113.048C114.111 59.7205 114.465 59.5069 114.465 58.4392V46.8368H114.323L109.22 61.0017H108.086L102.912 46.8368Z" fill="#4E4F53"/>
<path d="M120.631 55.0938C120.631 51.3924 123.254 48.901 125.876 48.901C128.357 48.901 130.554 50.9653 130.554 54.382C130.554 54.7379 130.554 55.0938 130.483 55.3785H122.97C123.112 58.0833 124.246 59.7917 126.231 59.7917C127.577 59.7917 128.711 59.151 129.775 57.7274L130.554 58.2257C129.349 60.0764 127.861 61.1441 125.735 61.1441C122.758 61.1441 120.631 58.7951 120.631 55.0938ZM127.01 54.2396C127.861 54.2396 128.144 54.0972 128.144 53.3854C128.144 51.25 127.223 49.9688 125.805 49.9688C124.388 49.9688 123.183 51.3924 123.041 54.2396H127.01Z" fill="#4E4F53"/>
<path d="M132.255 59.6493H132.68C133.673 59.6493 133.885 59.4358 133.885 58.3681V51.6771C133.885 50.6806 133.673 50.3958 132.68 50.3958H132.255V49.3281L136.082 49.0434L135.728 52.9583H135.87C136.791 50.5382 138.067 48.9722 139.555 48.9722C140.689 48.8299 141.611 49.684 141.753 50.7517C141.753 50.8941 141.753 50.9653 141.753 51.1076C141.753 52.2465 141.115 52.9583 140.264 52.9583C139.555 53.0295 138.988 52.4601 138.918 51.8195V51.7483C138.918 51.25 139.13 50.8229 139.555 50.5382C139.768 50.3958 139.697 50.1111 139.414 50.1111C137.784 50.1111 136.012 53.6701 136.012 56.3038V58.3681C136.012 59.3646 136.224 59.6493 137.217 59.6493H137.996V60.7882H132.184L132.255 59.6493Z" fill="#4E4F53"/>
<path d="M143.383 59.6493H143.737C144.659 59.6493 144.871 59.4358 144.871 58.3681V51.6771C144.871 50.6806 144.659 50.3958 143.737 50.3958H143.17V49.3281L147.139 49.0434V58.3681C147.139 59.3646 147.352 59.6493 148.273 59.6493H148.557V60.7882H143.383V59.6493ZM144.162 45.1997C144.162 44.2743 144.942 43.6337 145.863 43.6337C146.785 43.6337 147.423 44.4167 147.423 45.342C147.423 46.1962 146.643 46.908 145.793 46.908C144.8 46.8368 144.162 46.125 144.162 45.1997Z" fill="#4E4F53"/>
<path d="M158.621 58.2969H158.479C157.629 59.934 156.424 61.0017 154.723 61.0017C152.313 61.0017 150.116 58.5816 150.116 55.0938C150.116 51.6059 152.384 49.1146 154.865 49.1146C156.424 49.1858 157.842 50.1111 158.55 51.5347H158.692L158.409 49.1146V46.2674C158.409 45.2708 158.196 45.0573 157.204 45.0573H156.353V43.9184L160.606 43.4913V58.2969C160.606 59.3646 160.818 59.5781 161.811 59.5781H162.236V60.6458L158.409 61.1441L158.621 58.2969ZM158.409 55.0226C158.409 52.5313 156.849 50.3958 155.219 50.3958C153.589 50.3958 152.668 52.033 152.668 55.0226C152.668 58.0122 153.66 59.7205 155.219 59.7205C156.778 59.7205 158.409 57.5139 158.409 55.0226Z" fill="#4E4F53"/>
<path d="M164.079 59.6493H164.433C165.354 59.6493 165.567 59.4358 165.567 58.3681V51.6771C165.567 50.6806 165.354 50.3958 164.433 50.3958H163.866V49.3281L167.835 49.0434V58.3681C167.835 59.3646 168.048 59.6493 168.969 59.6493H169.253V60.7882H164.079V59.6493ZM164.858 45.1997C164.858 44.2743 165.638 43.6337 166.559 43.6337C167.481 43.6337 168.119 44.4167 168.119 45.342C168.119 46.1962 167.339 46.908 166.488 46.908C165.567 46.8368 164.858 46.125 164.858 45.1997Z" fill="#4E4F53"/>
<path d="M171.024 58.2969C171.024 56.1615 173.151 54.7379 177.97 53.7413V53.3854C177.97 51.0365 177.262 50.1111 175.561 50.1111C174.923 50.1111 174.214 50.2535 173.718 50.6094C173.647 50.7517 173.576 50.8941 173.789 51.0365C174.497 51.3924 174.71 52.2465 174.356 52.8872C174.072 53.3854 173.576 53.6701 173.08 53.6701C172.3 53.6701 171.591 53.1007 171.591 52.2465C171.591 52.1754 171.591 52.1042 171.591 52.1042C171.591 50.3958 173.434 49.1146 175.986 49.1146C178.537 49.1146 180.238 50.467 180.238 53.3142V58.8663C180.238 59.5069 180.451 59.7205 180.805 59.7205C181.089 59.6493 181.443 59.5069 181.585 59.2222L182.081 59.7917C181.656 60.5035 180.876 60.9306 180.026 60.9306C178.963 60.9306 178.183 60.0764 178.183 58.5816H178.041C177.262 60.0764 175.773 61.0017 174.143 61.0017C172.371 61.0729 171.024 60.1476 171.024 58.2969ZM177.97 56.0903V54.7379C174.285 55.4497 173.434 56.5885 173.434 58.0122C173.363 58.7951 173.93 59.5781 174.71 59.6493C174.781 59.6493 174.852 59.6493 174.923 59.6493C176.411 59.5781 177.97 58.2969 177.97 56.0903Z" fill="#4E4F53"/>
<path d="M183.144 59.6493H183.57C184.562 59.6493 184.774 59.4358 184.774 58.3681V51.6771C184.774 50.6806 184.562 50.3958 183.57 50.3958H183.144V49.3281L186.972 49.0434L186.688 52.2465H186.83C187.61 50.467 188.956 49.1146 190.728 49.1146C192.784 49.1146 193.988 50.3247 193.988 52.9583V58.4392C193.988 59.4358 194.201 59.7205 195.193 59.7205H195.477V60.8594H190.09V59.7205H190.586C191.649 59.7205 191.791 59.507 191.791 58.4392V53.0295C191.791 51.4635 191.295 50.6806 190.09 50.6806C188.389 50.6806 187.043 53.1719 187.043 55.4497V58.4392C187.043 59.4358 187.255 59.7205 188.247 59.7205H188.744V60.8594H183.215V59.6493H183.144Z" fill="#4E4F53"/>
<path d="M201.36 59.7205H202.21C203.273 59.7205 203.769 59.5069 203.982 58.4392L206.959 46.2674C207.171 45.2708 206.888 44.9861 205.825 44.9861H204.974L205.258 43.8472H212.487L212.204 44.9861H211.282C210.219 44.9861 209.794 45.1997 209.51 46.2674L208.164 51.5347H215.18L216.527 46.2674C216.811 45.1997 216.456 44.9861 215.393 44.9861H214.472L214.755 43.8472H221.985L221.701 44.9861H220.851C219.787 44.9861 219.291 45.1997 219.079 46.2674L216.031 58.4392C215.747 59.4358 216.102 59.7205 217.236 59.7205H218.086L217.803 60.8594H210.573L210.857 59.7205H211.849C212.912 59.7205 213.338 59.5069 213.621 58.4392L214.968 52.9583H207.951L206.534 58.4392C206.25 59.4358 206.675 59.7205 207.738 59.7205H208.66L208.376 60.8594H201.147L201.36 59.7205Z" fill="#4E4F53"/>
<path d="M222.41 56.8021C222.41 58.5816 223.189 59.7205 224.253 59.7205C225.599 59.7205 226.591 59.0799 227.867 57.7986L228.576 58.3681C227.088 60.1476 225.67 61.1441 223.686 61.1441C221.559 61.1441 219.929 59.5781 219.929 56.6597C219.929 53.4566 223.048 48.9722 226.733 48.9722C228.434 48.9722 229.568 49.8976 229.568 51.4635C229.568 53.6701 227.442 55.5208 222.41 56.4462V56.8021ZM227.158 51.4635C227.158 50.6094 226.733 50.1111 226.166 50.1111C224.89 50.1111 222.977 52.4601 222.552 55.4497C226.308 54.5955 227.158 53.3854 227.158 51.4635Z" fill="#4E4F53"/>
<path d="M230.702 57.0868C230.702 52.816 233.821 49.1146 236.514 49.1146C238.215 49.1146 238.853 49.9688 239.349 51.6059H239.42C240.058 50.8229 240.554 50.0399 240.909 49.1146H242.043L239.491 57.5139C239.278 58.0122 239.207 58.5104 239.137 59.0799C239.137 59.4358 239.278 59.5781 239.491 59.5781C239.916 59.5781 240.483 58.9375 241.546 57.3004L242.255 57.7986C241.121 59.7917 240.129 60.9306 238.782 60.9306C237.436 60.9306 237.152 60.2188 237.152 59.5069C237.152 59.151 237.223 58.7951 237.294 58.4392H237.152C236.16 59.8628 235.097 61.0729 233.537 61.0729C231.907 61.0729 230.631 59.7205 230.702 57.0868ZM238.286 52.816C238.286 51.3212 237.79 50.3958 236.798 50.3958C234.884 50.3958 233.183 53.5278 233.183 57.5139C233.183 58.9375 233.537 59.5069 234.317 59.5069C235.876 59.5781 238.286 56.2326 238.286 52.816Z" fill="#4E4F53"/>
<path d="M243.744 59.2222C243.744 58.6528 243.885 58.0833 244.098 57.5851L247.358 46.4097C247.429 46.125 247.5 45.8403 247.5 45.4844C247.5 45.1285 247.217 44.9861 246.508 44.9861H245.728L246.012 43.8472L250.477 43.4201L246.437 57.3715C246.295 57.8698 246.153 58.4392 246.083 59.0087C246.083 59.3646 246.153 59.5069 246.366 59.5069C246.791 59.5069 247.287 58.9375 248.351 57.3003L249.13 57.7986C247.925 59.7917 247.004 60.8594 245.586 60.8594C244.665 60.9306 243.885 60.2899 243.814 59.4358C243.673 59.4358 243.673 59.2934 243.744 59.2222Z" fill="#4E4F53"/>
<path d="M251.186 58.9375C251.186 58.4392 251.256 57.8698 251.469 57.3715L253.454 50.5382H251.823L252.036 49.6129C254.091 49.1858 254.871 48.5451 256.218 45.0573H257.423L256.147 49.3281H259.195L258.911 50.5382H255.722L253.666 57.5851C253.524 57.941 253.524 58.2969 253.524 58.6528C253.524 59.2222 253.737 59.7205 254.375 59.7205C255.296 59.7205 255.934 59.0087 257.068 56.9445L257.848 57.4427C256.572 60.0764 255.367 61.2153 253.524 61.2153C252.32 61.2865 251.327 60.4323 251.256 59.2222C251.186 59.0799 251.115 59.0087 251.186 58.9375Z" fill="#4E4F53"/>
<path d="M265.432 59.2222C265.432 58.5816 265.573 57.8698 265.857 57.2292L267.274 53.5278C267.558 52.816 267.771 52.1042 267.842 51.3212C267.842 50.8941 267.7 50.6094 267.204 50.6094C265.573 50.6094 263.235 54.3108 262.242 57.6563L261.25 60.7882H258.982L263.235 46.3385C263.305 46.0538 263.376 45.7691 263.376 45.4132C263.376 45.0573 263.093 44.9149 262.384 44.9149H261.463L261.817 43.776L266.353 43.349L264.439 49.4705L263.164 52.8872L263.305 52.9583C264.723 50.6094 266.14 48.9722 267.983 48.9722C268.976 48.8299 269.897 49.5417 270.039 50.6094C270.039 50.7517 270.039 50.8941 270.039 51.0365C269.968 51.8906 269.755 52.6736 269.472 53.4566L267.983 57.3003C267.771 57.7986 267.629 58.2969 267.558 58.8663C267.558 59.2222 267.7 59.4358 267.912 59.4358C268.338 59.4358 268.834 58.8663 269.897 57.2292L270.606 57.7274C269.401 59.7205 268.479 60.7882 267.062 60.7882C266.211 60.8594 265.361 60.2188 265.29 59.3646C265.432 59.4358 265.432 59.2934 265.432 59.2222Z" fill="#4E4F53"/>
</g>
<defs>
<clipPath id="clip0_2_460">
<rect width="275" height="82" fill="white"/>
</clipPath>
</defs>
</svg>
