<svg width="36" height="41" viewBox="0 0 36 41" fill="none" xmlns="http://www.w3.org/2000/svg">
<g clip-path="url(#clip0_1_135)">
<path d="M8 30.7388L15.0312 20.27L8 9.80127V30.7388ZM11.0469 35.27H25.0312L18 24.8013L11.0469 35.27ZM21.0469 20.27L28 30.7388V9.80127L21.0469 20.27ZM25.0312 5.27002H11.0469L18 15.7388L25.0312 5.27002ZM3 4.02002C3.05208 2.97835 3.41667 2.09294 4.09375 1.36377C4.82292 0.686687 5.70833 0.322102 6.75 0.27002H29.25C30.2917 0.322102 31.1771 0.686687 31.9062 1.36377C32.5833 2.09294 32.9479 2.97835 33 4.02002V36.52C32.9479 37.5617 32.5833 38.4471 31.9062 39.1763C31.1771 39.8534 30.2917 40.2179 29.25 40.27H6.75C5.70833 40.2179 4.82292 39.8534 4.09375 39.1763C3.41667 38.4471 3.05208 37.5617 3 36.52V4.02002Z" fill="white"/>
</g>
<defs>
<clipPath id="clip0_1_135">
<rect width="35" height="40" fill="white" transform="matrix(1 0 0 -1 0.5 40.27)"/>
</clipPath>
</defs>
</svg>
