<svg width="50" height="41" viewBox="0 0 50 41" fill="none" xmlns="http://www.w3.org/2000/svg">
<g clip-path="url(#clip0_1_146)">
<path d="M15 4.02002C15.0521 2.97835 15.4167 2.09294 16.0938 1.36377C16.8229 0.686687 17.7083 0.322102 18.75 0.27002H31.25C32.2917 0.322102 33.1771 0.686687 33.9062 1.36377C34.5833 2.09294 34.9479 2.97835 35 4.02002V40.27H28.75V34.02C28.6979 32.9784 28.3333 32.0929 27.6562 31.3638C26.9271 30.6867 26.0417 30.3221 25 30.27C23.9583 30.3221 23.0729 30.6867 22.3438 31.3638C21.6667 32.0929 21.3021 32.9784 21.25 34.02V40.27H15V4.02002ZM3.75 7.77002H12.5V40.27H3.75C2.70833 40.2179 1.82292 39.8534 1.09375 39.1763C0.416667 38.4471 0.0520833 37.5617 0 36.52V25.27H6.25C7.03125 25.2179 7.44792 24.8013 7.5 24.02C7.44792 23.2388 7.03125 22.8221 6.25 22.77H0V17.77H6.25C7.03125 17.7179 7.44792 17.3013 7.5 16.52C7.44792 15.7388 7.03125 15.3221 6.25 15.27H0V11.52C0.0520833 10.4784 0.416667 9.59294 1.09375 8.86377C1.82292 8.18669 2.70833 7.8221 3.75 7.77002ZM46.25 7.77002C47.2917 7.8221 48.1771 8.18669 48.9062 8.86377C49.5833 9.59294 49.9479 10.4784 50 11.52V15.27H43.75C42.9688 15.3221 42.5521 15.7388 42.5 16.52C42.5521 17.3013 42.9688 17.7179 43.75 17.77H50V22.77H43.75C42.9688 22.8221 42.5521 23.2388 42.5 24.02C42.5521 24.8013 42.9688 25.2179 43.75 25.27H50V36.52C49.9479 37.5617 49.5833 38.4471 48.9062 39.1763C48.1771 39.8534 47.2917 40.2179 46.25 40.27H37.5V7.77002H46.25ZM24.375 5.27002C23.5938 5.3221 23.1771 5.73877 23.125 6.52002V8.39502H21.25C20.4688 8.4471 20.0521 8.86377 20 9.64502V10.895C20.0521 11.6763 20.4688 12.0929 21.25 12.145H23.125V14.02C23.1771 14.8013 23.5938 15.2179 24.375 15.27H25.625C26.4062 15.2179 26.8229 14.8013 26.875 14.02V12.145H28.75C29.5312 12.0929 29.9479 11.6763 30 10.895V9.64502C29.9479 8.86377 29.5312 8.4471 28.75 8.39502H26.875V6.52002C26.8229 5.73877 26.4062 5.3221 25.625 5.27002H24.375Z" fill="white"/>
</g>
<defs>
<clipPath id="clip0_1_146">
<rect width="50" height="40" fill="white" transform="matrix(1 0 0 -1 0 40.27)"/>
</clipPath>
</defs>
</svg>
